<svg width="98" height="26" viewBox="0 0 98 26" fill="none" xmlns="http://www.w3.org/2000/svg">
<path d="M17.4047 13.8297C17.4171 12.8649 17.6726 11.9187 18.1475 11.0795C18.6223 10.2403 19.3012 9.53521 20.1206 9.02973C19.6 8.28392 18.9132 7.67013 18.1147 7.23711C17.3161 6.8042 16.428 6.56386 15.5207 6.53538C13.5854 6.33162 11.7092 7.69706 10.7229 7.69706C9.71756 7.69706 8.19914 6.55564 6.564 6.58936C5.50632 6.62368 4.47564 6.93218 3.57212 7.48484C2.66872 8.0375 1.92336 8.81548 1.40884 9.7429C-0.820183 13.6138 0.842429 19.3027 2.97764 22.4317C4.04589 23.9638 5.29438 25.6753 6.92811 25.6146C8.52673 25.548 9.12379 24.5921 11.0534 24.5921C12.9652 24.5921 13.5254 25.6146 15.1922 25.576C16.9075 25.548 17.9884 24.037 19.0192 22.4904C19.7867 21.3987 20.3773 20.1921 20.7692 18.9153C19.7726 18.4925 18.9222 17.7848 18.3238 16.8804C17.7255 15.9761 17.4059 14.9151 17.4047 13.8297Z" fill="white"/>
<path d="M14.7991 4.2496C15.7765 3.22728 16.2581 1.91313 16.1414 0.586426C14.6482 0.723152 13.269 1.34491 12.2783 2.32807C11.794 2.80834 11.4231 3.36715 11.1868 3.97236C10.9504 4.57767 10.8533 5.21761 10.9009 5.85559C11.6478 5.8623 12.3867 5.72125 13.062 5.44303C13.7372 5.16493 14.3311 4.7568 14.7991 4.2496Z" fill="white"/>
<path d="M41.322 16.0492H37.3985L36.4562 18.7865H34.7944L38.5107 8.65918H40.2373L43.9536 18.7865H42.2634L41.322 16.0492ZM37.8048 14.7861H40.9148L39.3817 10.3437H39.3388L37.8048 14.7861Z" fill="white"/>
<path d="M51.979 15.095C51.979 17.3896 50.7308 18.8637 48.8472 18.8637C48.37 18.8883 47.8955 18.7801 47.4779 18.5516C47.0603 18.3232 46.7165 17.9836 46.4859 17.5719H46.4503V21.2291H44.9099V11.4028H46.401V12.6309H46.4293C46.6704 12.2211 47.02 11.8833 47.4408 11.6535C47.8615 11.4236 48.3378 11.3103 48.8188 11.3256C50.7235 11.3256 51.979 12.8069 51.979 15.095ZM50.3957 15.095C50.3957 13.6001 49.6105 12.6174 48.4125 12.6174C47.2355 12.6174 46.4439 13.6209 46.4439 15.095C46.4439 16.5827 47.2355 17.5791 48.4125 17.5791C49.6105 17.5791 50.3957 16.6035 50.3957 15.095Z" fill="white"/>
<path d="M60.2383 15.095C60.2383 17.3896 58.9901 18.8637 57.1065 18.8637C56.6293 18.8883 56.1548 18.7801 55.7372 18.5516C55.3196 18.3232 54.9758 17.9836 54.7453 17.5719H54.7096V21.2291H53.1692V11.4028H54.6602V12.6309H54.6885C54.9297 12.2211 55.2793 11.8833 55.7001 11.6535C56.1209 11.4236 56.5971 11.3103 57.0782 11.3256C58.9828 11.3256 60.2383 12.8069 60.2383 15.095ZM58.655 15.095C58.655 13.6001 57.8698 12.6174 56.6718 12.6174C55.4948 12.6174 54.7031 13.6209 54.7031 15.095C54.7031 16.5827 55.4948 17.5791 56.6718 17.5791C57.8698 17.5791 58.655 16.6035 58.655 15.095Z" fill="white"/>
<path d="M65.6977 15.9652C65.8119 16.9694 66.8034 17.6288 68.1585 17.6288C69.4569 17.6288 70.391 16.9694 70.391 16.0639C70.391 15.2778 69.8276 14.8071 68.4936 14.4846L67.1596 14.1684C65.2695 13.7192 64.392 12.8495 64.392 11.4383C64.392 9.69087 65.9397 8.49072 68.1374 8.49072C70.3125 8.49072 71.8035 9.69087 71.8537 11.4383H70.2987C70.2057 10.4276 69.3565 9.81756 68.1155 9.81756C66.8746 9.81756 66.0255 10.4347 66.0255 11.3331C66.0255 12.0491 66.5678 12.4705 67.8945 12.7929L69.0286 13.0669C71.1405 13.5583 72.018 14.393 72.018 15.8743C72.018 17.769 70.4841 18.9557 68.0444 18.9557C65.7616 18.9557 64.2204 17.7969 64.1208 15.9651L65.6977 15.9652Z" fill="white"/>
<path d="M75.3428 9.65479V11.4022H76.77V12.6023H75.3428V16.6729C75.3428 17.3053 75.6291 17.5999 76.2565 17.5999C76.4254 17.597 76.5952 17.5853 76.7632 17.5648V18.7578C76.4812 18.8097 76.1941 18.8332 75.9078 18.8279C74.3881 18.8279 73.7955 18.2665 73.7955 16.8345V12.6023H72.7043V11.4022H73.7955V9.65479H75.3428Z" fill="white"/>
<path d="M77.5967 15.0946C77.5967 12.7713 78.9866 11.3115 81.1552 11.3115C83.3314 11.3115 84.7154 12.7713 84.7154 15.0946C84.7154 17.4241 83.339 18.8775 81.1552 18.8775C78.9731 18.8775 77.5967 17.4241 77.5967 15.0946ZM83.1456 15.0946C83.1456 13.5009 82.4033 12.5603 81.1552 12.5603C79.9071 12.5603 79.1657 13.5081 79.1657 15.0946C79.1657 16.6945 79.9071 17.6279 81.1552 17.6279C82.4033 17.6279 83.1456 16.6945 83.1456 15.0946Z" fill="white"/>
<path d="M85.9844 11.4028H87.4537V12.6595H87.4892C87.5888 12.267 87.8227 11.9201 88.1512 11.6772C88.4797 11.4343 88.8834 11.31 89.2946 11.3255C89.472 11.3249 89.6493 11.3438 89.8224 11.3821V12.7997C89.5978 12.7323 89.3639 12.7013 89.13 12.7081C88.9062 12.6992 88.6832 12.738 88.4764 12.8219C88.2686 12.9058 88.0828 13.0328 87.93 13.1942C87.778 13.3556 87.6623 13.5475 87.5922 13.7568C87.523 13.9661 87.4993 14.1879 87.5247 14.4069V18.7864H85.9844V11.4028Z" fill="white"/>
<path d="M96.9256 16.6173C96.7188 17.9577 95.3921 18.8775 93.6939 18.8775C91.511 18.8775 90.1565 17.4384 90.1565 15.1296C90.1565 12.8136 91.5186 11.3115 93.6297 11.3115C95.7063 11.3115 97.0118 12.7149 97.0118 14.9536V15.4728H91.7111V15.5645C91.6866 15.8362 91.7213 16.1099 91.8125 16.3675C91.9037 16.6251 92.0498 16.8606 92.2406 17.0584C92.4315 17.2562 92.6637 17.4118 92.9204 17.5148C93.1771 17.6178 93.4532 17.6658 93.7302 17.6558C94.0942 17.6894 94.459 17.6064 94.7714 17.4193C95.0839 17.2322 95.3262 16.9509 95.463 16.6173L96.9256 16.6173ZM91.7187 14.4136H95.4706C95.4842 14.1693 95.4462 13.9248 95.36 13.6954C95.273 13.4661 95.1388 13.2569 94.9657 13.0809C94.7934 12.9049 94.5857 12.766 94.3551 12.6729C94.1254 12.5798 93.878 12.5344 93.6297 12.5396C93.3789 12.5382 93.1298 12.5856 92.8976 12.6791C92.6654 12.7727 92.4551 12.9106 92.2769 13.0848C92.0996 13.2591 91.9586 13.4662 91.8623 13.6943C91.7669 13.9223 91.7179 14.1668 91.7187 14.4136Z" fill="white"/>
</svg>
