<svg width="21" height="24" viewBox="0 0 21 24" fill="none" xmlns="http://www.w3.org/2000/svg">
<path d="M3.75 0C2.75544 0 1.80161 0.395088 1.09835 1.09835C0.395088 1.80161 0 2.75544 0 3.75V17.25C0 18.2446 0.395088 19.1984 1.09835 19.9016C1.80161 20.6049 2.75544 21 3.75 21H14.25C15.2446 21 16.1984 20.6049 16.9016 19.9016C17.6049 19.1984 18 18.2446 18 17.25V3.75C18 2.75544 17.6049 1.80161 16.9016 1.09835C16.1984 0.395088 15.2446 0 14.25 0H3.75ZM3 4.5C3 4.10218 3.15804 3.72064 3.43934 3.43934C3.72064 3.15804 4.10218 3 4.5 3H13.5C13.8978 3 14.2794 3.15804 14.5607 3.43934C14.842 3.72064 15 4.10218 15 4.5V7.5C15 7.89782 14.842 8.27936 14.5607 8.56066C14.2794 8.84196 13.8978 9 13.5 9H4.5C4.10218 9 3.72064 8.84196 3.43934 8.56066C3.15804 8.27936 3 7.89782 3 7.5V4.5ZM3 12C3 11.6022 3.15804 11.2206 3.43934 10.9393C3.72064 10.658 4.10218 10.5 4.5 10.5C4.89782 10.5 5.27936 10.658 5.56066 10.9393C5.84196 11.2206 6 11.6022 6 12C6 12.3978 5.84196 12.7794 5.56066 13.0607C5.27936 13.342 4.89782 13.5 4.5 13.5C4.10218 13.5 3.72064 13.342 3.43934 13.0607C3.15804 12.7794 3 12.3978 3 12ZM9 10.5C9.39782 10.5 9.77936 10.658 10.0607 10.9393C10.342 11.2206 10.5 11.6022 10.5 12C10.5 12.3978 10.342 12.7794 10.0607 13.0607C9.77936 13.342 9.39782 13.5 9 13.5C8.60218 13.5 8.22064 13.342 7.93934 13.0607C7.65804 12.7794 7.5 12.3978 7.5 12C7.5 11.6022 7.65804 11.2206 7.93934 10.9393C8.22064 10.658 8.60218 10.5 9 10.5ZM9 14.625C9.39782 14.625 9.77936 14.783 10.0607 15.0643C10.342 15.3456 10.5 15.7272 10.5 16.125C10.5 16.5228 10.342 16.9044 10.0607 17.1857C9.77936 17.467 9.39782 17.625 9 17.625C8.60218 17.625 8.22064 17.467 7.93934 17.1857C7.65804 16.9044 7.5 16.5228 7.5 16.125C7.5 15.7272 7.65804 15.3456 7.93934 15.0643C8.22064 14.783 8.60218 14.625 9 14.625ZM12 12C12 11.6022 12.158 11.2206 12.4393 10.9393C12.7206 10.658 13.1022 10.5 13.5 10.5C13.8978 10.5 14.2794 10.658 14.5607 10.9393C14.842 11.2206 15 11.6022 15 12C15 12.3978 14.842 12.7794 14.5607 13.0607C14.2794 13.342 13.8978 13.5 13.5 13.5C13.1022 13.5 12.7206 13.342 12.4393 13.0607C12.158 12.7794 12 12.3978 12 12ZM13.5 14.625C13.8978 14.625 14.2794 14.783 14.5607 15.0643C14.842 15.3456 15 15.7272 15 16.125C15 16.5228 14.842 16.9044 14.5607 17.1857C14.2794 17.467 13.8978 17.625 13.5 17.625C13.1022 17.625 12.7206 17.467 12.4393 17.1857C12.158 16.9044 12 16.5228 12 16.125C12 15.7272 12.158 15.3456 12.4393 15.0643C12.7206 14.783 13.1022 14.625 13.5 14.625ZM4.5 14.625C4.89782 14.625 5.27936 14.783 5.56066 15.0643C5.84196 15.3456 6 15.7272 6 16.125C6 16.5228 5.84196 16.9044 5.56066 17.1857C5.27936 17.467 4.89782 17.625 4.5 17.625C4.10218 17.625 3.72064 17.467 3.43934 17.1857C3.15804 16.9044 3 16.5228 3 16.125C3 15.7272 3.15804 15.3456 3.43934 15.0643C3.72064 14.783 4.10218 14.625 4.5 14.625ZM6.75 24C6.16783 24 5.59366 23.8645 5.07295 23.6041C4.55224 23.3438 4.0993 22.9657 3.75 22.5H14.25C15.6424 22.5 16.9777 21.9469 17.9623 20.9623C18.9469 19.9777 19.5 18.6424 19.5 17.25V3.75C20.4105 4.434 21 5.523 21 6.75V17.25C21 19.0402 20.2888 20.7571 19.023 22.023C17.7571 23.2888 16.0402 24 14.25 24H6.75Z" fill="#0060AE"/>
</svg>
