<svg width="105" height="22" viewBox="0 0 105 22" fill="none" xmlns="http://www.w3.org/2000/svg">
<path fill-rule="evenodd" clip-rule="evenodd" d="M53.6524 8.8484C51.5548 8.8484 49.8546 10.3258 49.8546 12.3636C49.8546 14.3829 51.5659 15.8788 53.6524 15.8788C55.75 15.8788 57.4503 14.3911 57.4503 12.3636C57.4503 10.3258 55.75 8.8484 53.6524 8.8484ZM53.6524 14.4859C52.5049 14.4859 51.5171 13.604 51.5171 12.3554C51.5171 11.0882 52.5071 10.2248 53.6524 10.2248C54.8 10.2248 55.7877 11.0882 55.7877 12.3554C55.79 13.6123 54.8 14.4859 53.6524 14.4859ZM45.3664 8.8484C43.2688 8.8484 41.5685 10.3258 41.5685 12.3636C41.5685 14.3829 43.2799 15.8788 45.3664 15.8788C47.4639 15.8788 49.1643 14.3911 49.1643 12.3636C49.1643 10.3258 47.4617 8.8484 45.3664 8.8484ZM45.3664 14.4859C44.2187 14.4859 43.231 13.604 43.231 12.3554C43.231 11.0882 44.221 10.2248 45.3664 10.2248C46.5139 10.2248 47.5017 11.0882 47.5017 12.3554C47.5017 13.6123 46.5139 14.4859 45.3664 14.4859ZM35.5066 9.9219V11.4096H39.3533C39.2356 12.2441 38.9382 12.8602 38.4832 13.2826C37.9193 13.806 37.0492 14.3747 35.5155 14.3747C33.1515 14.3747 31.3025 12.6026 31.3025 10.4082C31.3025 8.21372 33.1515 6.44168 35.5155 6.44168C36.7917 6.44168 37.7218 6.90941 38.4121 7.507L39.5486 6.452C38.5897 5.5989 37.3134 4.9458 35.5243 4.9458C32.2814 4.9458 29.5601 7.39779 29.5601 10.4C29.5601 13.4104 32.2792 15.8541 35.5243 15.8541C37.2756 15.8541 38.5897 15.3225 39.6285 14.3211C40.6872 13.3383 41.0225 11.9515 41.0225 10.8327C41.0225 10.4844 40.9936 10.1712 40.9336 9.90538H35.5043C35.5066 9.90331 35.5066 9.9219 35.5066 9.9219ZM75.836 11.0799C75.5187 10.2907 74.5592 8.84014 72.5927 8.84014C70.644 8.84014 69.0237 10.264 69.0237 12.3554C69.0237 14.3293 70.6263 15.8706 72.7814 15.8706C74.5127 15.8706 75.5204 14.8878 75.9359 14.3108L74.6506 13.5113C74.2241 14.0985 73.6318 14.4839 72.7907 14.4839C71.9404 14.4839 71.3454 14.1254 70.9504 13.4186L76.0137 11.4714C76.0137 11.4735 75.836 11.0799 75.836 11.0799ZM70.6729 12.2544C70.633 10.8965 71.8094 10.2062 72.6503 10.2062C73.3145 10.2062 73.867 10.5092 74.0557 10.9501L70.6729 12.2544ZM66.5598 15.6604H68.2224V5.33315H66.5598V15.6604ZM63.8296 9.6293H63.7697C63.3945 9.21518 62.6821 8.84014 61.7719 8.84014C59.883 8.84014 58.1428 10.3834 58.1428 12.3656C58.1428 14.3396 59.8742 15.8644 61.7719 15.8644C62.671 15.8644 63.3945 15.4873 63.7697 15.065H63.8296V15.5698C63.8296 16.9112 63.0572 17.6344 61.812 17.6344C60.7931 17.6344 60.1605 16.9545 59.903 16.3857L58.458 16.9462C58.8731 17.8734 59.9807 19.0211 61.8097 19.0211C63.7586 19.0211 65.4101 17.9558 65.4101 15.3576V9.0503H63.8385V9.6293C63.8407 9.6293 63.8296 9.6293 63.8296 9.6293ZM61.9207 14.4859C60.7732 14.4859 59.8142 13.5958 59.8142 12.3656C59.8142 11.1253 60.7732 10.2269 61.9207 10.2269C63.0572 10.2269 63.9384 11.1355 63.9384 12.3656C63.9495 13.5958 63.0594 14.4859 61.9207 14.4859ZM83.6207 5.33315H79.6446V15.6604H81.3073V11.7495H83.6224C85.4627 11.7495 87.2718 10.5112 87.2718 8.54548C87.2718 6.57972 85.4695 5.33315 83.6207 5.33315ZM83.6689 10.3072H81.3047V6.76311H83.6689C84.9144 6.76311 85.6176 7.71716 85.6176 8.53515C85.6176 9.34496 84.9051 10.3072 83.6689 10.3072ZM93.9353 8.82981C92.7278 8.82981 91.4823 9.32638 90.9678 10.4082L92.441 10.9769C92.7583 10.4082 93.3404 10.2145 93.9547 10.2145C94.8161 10.2145 95.6868 10.6926 95.7063 11.5456V11.6548C95.4093 11.4982 94.756 11.2592 93.975 11.2592C92.3834 11.2592 90.7698 12.0669 90.7698 13.5814C90.7698 14.9681 92.0754 15.8582 93.5291 15.8582C94.6452 15.8582 95.2604 15.3905 95.6445 14.8486H95.7046V15.6481H97.3072V11.6919C97.3072 9.84978 95.8332 8.82981 93.9353 8.82981ZM93.7263 14.4859C93.183 14.4859 92.4215 14.2387 92.4215 13.604C92.4215 12.8045 93.3709 12.5017 94.1815 12.5017C94.9143 12.5017 95.2604 12.648 95.6953 12.8499C95.5751 13.7771 94.7323 14.4777 93.7263 14.4859ZM103.153 9.0503L101.244 13.5298H101.184L99.2068 9.0503H97.418L100.386 15.3122L98.694 18.7924H100.425L104.991 9.0503H103.153ZM88.1882 15.6604H89.8509V5.33315H88.1882V15.6604Z" fill="white"/>
<path fill-rule="evenodd" clip-rule="evenodd" d="M0.791005 0.70208C0.53352 0.959654 0.384766 1.3532 0.384766 1.86835V20.1389C0.384766 20.6541 0.533519 21.0476 0.799804 21.2949L0.868681 21.3505L11.896 11.1138V10.8852L0.859796 0.646484L0.791005 0.70208Z" fill="url(#paint0_linear_200_25)"/>
<path fill-rule="evenodd" clip-rule="evenodd" d="M15.5652 14.5363L11.8872 11.122V10.883L15.5652 7.46875L15.6451 7.5141L19.9956 9.80947C21.2408 10.4606 21.2408 11.5362 19.9956 12.1955L15.6451 14.491L15.5652 14.5363Z" fill="url(#paint1_linear_200_25)"/>
<path fill-rule="evenodd" clip-rule="evenodd" d="M15.6453 14.4914L11.8874 11.0029L0.79126 21.3034C1.19741 21.7073 1.87891 21.7526 2.64019 21.3591L15.6453 14.4914Z" fill="url(#paint2_linear_200_25)"/>
<path fill-rule="evenodd" clip-rule="evenodd" d="M15.6453 7.51427L2.64019 0.656919C1.87891 0.25302 1.19521 0.308641 0.79126 0.712515L11.8874 11.0028L15.6453 7.51427Z" fill="url(#paint3_linear_200_25)"/>
<path opacity="0.2" fill-rule="evenodd" clip-rule="evenodd" d="M15.5649 14.417L2.64858 21.2291C1.92714 21.6144 1.28348 21.5876 0.868437 21.2373L0.799561 21.3012L0.868437 21.3568C1.28348 21.7051 1.92714 21.7339 2.64858 21.3486L15.6537 14.4912L15.5649 14.417Z" fill="#373D47"/>
<path opacity="0.12" fill-rule="evenodd" clip-rule="evenodd" d="M19.9961 12.0764L15.5544 14.4172L15.6344 14.4914L19.9849 12.196C20.6087 11.8663 20.915 11.4336 20.915 11.0029C20.8773 11.3985 20.5599 11.7736 19.9961 12.0764Z" fill="#373D47"/>
<path opacity="0.25" fill-rule="evenodd" clip-rule="evenodd" d="M2.63993 0.776597L19.9956 9.92939C20.5594 10.2241 20.8768 10.6093 20.9257 11.0029C20.9257 10.5723 20.6194 10.1395 19.9956 9.80986L2.63993 0.657062C1.39473 -0.00436121 0.384766 0.547853 0.384766 1.86868V1.98814C0.384766 0.665322 1.39473 0.123393 2.63993 0.776597Z" fill="white"/>
<defs>
<linearGradient id="paint0_linear_200_25" x1="10.9069" y1="1.67125" x2="-6.57113" y2="6.68799" gradientUnits="userSpaceOnUse">
<stop stop-color="#00A0FF"/>
<stop offset="0.00657" stop-color="#00A1FF"/>
<stop offset="0.2601" stop-color="#00BEFF"/>
<stop offset="0.5122" stop-color="#00D2FF"/>
<stop offset="0.7604" stop-color="#00DFFF"/>
<stop offset="1" stop-color="#00E3FF"/>
</linearGradient>
<linearGradient id="paint1_linear_200_25" x1="21.6196" y1="11.0025" x2="0.0821781" y2="11.0025" gradientUnits="userSpaceOnUse">
<stop stop-color="#FFE000"/>
<stop offset="0.4087" stop-color="#FFBD00"/>
<stop offset="0.7754" stop-color="#FFA500"/>
<stop offset="1" stop-color="#FF9C00"/>
</linearGradient>
<linearGradient id="paint2_linear_200_25" x1="13.6019" y1="12.9011" x2="0.924847" y2="35.8859" gradientUnits="userSpaceOnUse">
<stop stop-color="#FF3A44"/>
<stop offset="1" stop-color="#C31162"/>
</linearGradient>
<linearGradient id="paint3_linear_200_25" x1="-2.00291" y1="-5.37486" x2="3.65255" y2="4.88985" gradientUnits="userSpaceOnUse">
<stop stop-color="#32A071"/>
<stop offset="0.0685" stop-color="#2DA771"/>
<stop offset="0.4762" stop-color="#15CF74"/>
<stop offset="0.8009" stop-color="#06E775"/>
<stop offset="1" stop-color="#00F076"/>
</linearGradient>
</defs>
</svg>
