<svg width="32" height="22" viewBox="0 0 32 22" fill="none" xmlns="http://www.w3.org/2000/svg">
<path d="M0 3.38462V6.76923H32V3.38462C32 2.48696 31.6254 1.62607 30.9586 0.991331C30.2918 0.356592 29.3874 0 28.4444 0H3.55556C2.61256 0 1.70819 0.356592 1.0414 0.991331C0.374602 1.62607 0 2.48696 0 3.38462Z" fill="#0099B5"/>
<path d="M32 18.6154V15.2308H0V18.6154C0 19.513 0.374602 20.3739 1.0414 21.0087C1.70819 21.6434 2.61256 22 3.55556 22H28.4444C29.3874 22 30.2918 21.6434 30.9586 21.0087C31.6254 20.3739 32 19.513 32 18.6154Z" fill="#1EB53A"/>
<path d="M0 6.76923H32V8.03846H0V6.76923ZM0 13.9615H32V15.2308H0V13.9615Z" fill="#CE1126"/>
<path d="M0 11V13.9615H32V8.03846H0V11Z" fill="#EEEEEE"/>
<path d="M3.73347 3.52C3.73355 2.89617 3.96569 2.29251 4.38874 1.81608C4.81179 1.33964 5.39841 1.0212 6.04458 0.917232C5.64679 0.852956 5.23906 0.872077 4.84984 0.973261C4.46061 1.07445 4.09927 1.25526 3.79102 1.50308C3.48277 1.7509 3.23503 2.05976 3.0651 2.40811C2.89517 2.75647 2.80713 3.13592 2.80713 3.52C2.80713 3.90408 2.89517 4.28354 3.0651 4.63189C3.23503 4.98024 3.48277 5.2891 3.79102 5.53693C4.09927 5.78475 4.46061 5.96556 4.84984 6.06674C5.23906 6.16792 5.64679 6.18705 6.04458 6.12277C5.39841 6.0188 4.81179 5.70036 4.38874 5.22392C3.96569 4.74749 3.73355 4.14383 3.73347 3.52ZM7.89614 5.46869L7.77169 5.104L7.64725 5.46869H7.24369L7.56991 5.69462L7.44547 6.05931L7.77169 5.83339L8.09703 6.05931L7.97258 5.69462L8.2988 5.46869H7.89614ZM10.2979 5.46869L10.1735 5.104L10.049 5.46869H9.64636L9.97258 5.69462L9.84814 6.05931L10.1735 5.83339L10.4997 6.05931L10.3752 5.69462L10.7015 5.46869H10.2979ZM10.1735 2.992L10.049 3.35669H9.64636L9.97258 3.58262L9.84814 3.94731L10.1735 3.72139L10.4997 3.94731L10.3752 3.58262L10.7015 3.35669H10.2979L10.1735 2.992ZM12.7006 5.46869L12.5761 5.104L12.4517 5.46869H12.049L12.3744 5.69462L12.2499 6.05931L12.5761 5.83339L12.9024 6.05931L12.7779 5.69462L13.1032 5.46869H12.7006ZM12.5761 2.992L12.4517 3.35669H12.049L12.3744 3.58262L12.2499 3.94731L12.5761 3.72139L12.9024 3.94731L12.7779 3.58262L13.1032 3.35669H12.7006L12.5761 2.992ZM12.5761 0.880001L12.4517 1.24469H12.049L12.3744 1.47062L12.2499 1.83531L12.5761 1.60939L12.9024 1.83531L12.7779 1.47062L13.1032 1.24469H12.7006L12.5761 0.880001ZM15.1032 5.46869L14.9788 5.104L14.8544 5.46869H14.4508L14.777 5.69462L14.6526 6.05931L14.9788 5.83339L15.3041 6.05931L15.1797 5.69462L15.5059 5.46869H15.1032ZM14.9788 2.992L14.8544 3.35669H14.4508L14.777 3.58262L14.6526 3.94731L14.9788 3.72139L15.3041 3.94731L15.1797 3.58262L15.5059 3.35669H15.1032L14.9788 2.992ZM14.9788 0.880001L14.8544 1.24469H14.4508L14.777 1.47062L14.6526 1.83531L14.9788 1.60939L15.3041 1.83531L15.1797 1.47062L15.5059 1.24469H15.1032L14.9788 0.880001ZM17.505 5.46869L17.3806 5.104L17.2561 5.46869H16.8535L17.1797 5.69462L17.0552 6.05931L17.3806 5.83339L17.7068 6.05931L17.5824 5.69462L17.9086 5.46869H17.505ZM17.3806 2.992L17.2561 3.35669H16.8535L17.1797 3.58262L17.0552 3.94731L17.3806 3.72139L17.7068 3.94731L17.5824 3.58262L17.9086 3.35669H17.505L17.3806 2.992ZM17.3806 0.880001L17.2561 1.24469H16.8535L17.1797 1.47062L17.0552 1.83531L17.3806 1.60939L17.7068 1.83531L17.5824 1.47062L17.9086 1.24469H17.505L17.3806 0.880001Z" fill="white"/>
</svg>
