<svg width="27" height="27" viewBox="0 0 27 27" fill="none" xmlns="http://www.w3.org/2000/svg">
<path d="M23.6668 0C24.4404 0 25.1822 0.307291 25.7292 0.854272C26.2762 1.40125 26.5835 2.14312 26.5835 2.91667V23.3333C26.5835 24.1069 26.2762 24.8487 25.7292 25.3957C25.1822 25.9427 24.4404 26.25 23.6668 26.25H3.25016C2.47661 26.25 1.73475 25.9427 1.18777 25.3957C0.640787 24.8487 0.333496 24.1069 0.333496 23.3333V2.91667C0.333496 2.14312 0.640787 1.40125 1.18777 0.854272C1.73475 0.307291 2.47661 0 3.25016 0H23.6668ZM22.9377 22.6042V14.875C22.9377 13.6141 22.4368 12.4049 21.5452 11.5133C20.6536 10.6217 19.4444 10.1208 18.1835 10.1208C16.9439 10.1208 15.5002 10.8792 14.8002 12.0167V10.3979H10.7314V22.6042H14.8002V15.4146C14.8002 14.2917 15.7043 13.3729 16.8272 13.3729C17.3687 13.3729 17.888 13.588 18.2709 13.9709C18.6538 14.3538 18.8689 14.8731 18.8689 15.4146V22.6042H22.9377ZM5.99183 8.10833C6.64161 8.10833 7.26478 7.85021 7.72424 7.39075C8.18371 6.93128 8.44183 6.30811 8.44183 5.65833C8.44183 4.30208 7.34808 3.19375 5.99183 3.19375C5.33818 3.19375 4.7113 3.45341 4.24911 3.91561C3.78691 4.37781 3.52725 5.00469 3.52725 5.65833C3.52725 7.01458 4.63558 8.10833 5.99183 8.10833ZM8.01891 22.6042V10.3979H3.97933V22.6042H8.01891Z" fill="#0060AE"/>
</svg>
