<svg width="21" height="24" viewBox="0 0 21 24" fill="none" xmlns="http://www.w3.org/2000/svg">
<path d="M9.99862 24C9.65878 23.9996 9.33191 23.8695 9.08479 23.6362C8.83768 23.4029 8.68897 23.0841 8.66905 22.7448C8.64914 22.4056 8.75951 22.0715 8.97763 21.8109C9.19576 21.5503 9.50516 21.3828 9.84262 21.3427L9.99862 21.3333L16.6653 21.3333C16.9919 21.3333 17.3071 21.2134 17.5511 20.9964C17.7952 20.7794 17.9511 20.4803 17.9893 20.156L17.9986 20L17.9986 4C17.9986 3.67342 17.8787 3.35822 17.6617 3.11417C17.4447 2.87012 17.1456 2.71421 16.8213 2.676L16.6653 2.66667L10.6653 2.66667C10.3254 2.66629 9.99858 2.53616 9.75146 2.30287C9.50435 2.06958 9.35564 1.75073 9.33572 1.41147C9.31581 1.07222 9.42619 0.738163 9.64431 0.477558C9.86243 0.216953 10.1718 0.0494724 10.5093 0.0093342L10.6653 1.54699e-06L16.6653 1.76321e-06C17.6856 -5.54205e-05 18.6673 0.389767 19.4096 1.08971C20.152 1.78966 20.5988 2.74681 20.6586 3.76533L20.6653 4L20.6653 20C20.6653 21.0203 20.2755 22.002 19.5756 22.7443C18.8756 23.4867 17.9185 23.9335 16.8999 23.9933L16.6653 24L9.99862 24ZM8.94128 16.7147C8.70134 16.9538 8.37937 17.0926 8.04077 17.103C7.70217 17.1133 7.37233 16.9944 7.11824 16.7703C6.86416 16.5463 6.70488 16.2339 6.67275 15.8967C6.64063 15.5595 6.73807 15.2227 6.94528 14.9547L7.05595 14.828L8.55062 13.3333L1.33195 13.3333C0.99211 13.333 0.66524 13.2028 0.418126 12.9695C0.171011 12.7362 0.0223051 12.4174 0.00238862 12.0781C-0.0175278 11.7389 0.0928486 11.4048 0.310969 11.1442C0.52909 10.8836 0.838489 10.7161 1.17595 10.676L1.33195 10.6667L8.55062 10.6667L7.05595 9.172C6.81428 8.93261 6.67324 8.60991 6.66171 8.26994C6.65017 7.92997 6.76901 7.59845 6.99391 7.34323C7.2188 7.08801 7.53273 6.9284 7.87145 6.89706C8.21017 6.86573 8.54806 6.96504 8.81595 7.17467L8.94128 7.28533L12.7133 11.0573C12.9429 11.2869 13.0808 11.5924 13.1011 11.9164C13.1215 12.2405 13.023 12.5608 12.824 12.8173L12.7133 12.9427L8.94128 16.7147Z" fill="#0060AE"/>
</svg>
